<?xml version="1.0" encoding="utf-8"?>
<!-- Generator: Adobe Illustrator 27.3.1, SVG Export Plug-In . SVG Version: 6.00 Build 0)  -->
<svg version="1.1" xmlns="http://www.w3.org/2000/svg" xmlns:xlink="http://www.w3.org/1999/xlink" x="0px" y="0px"
	 viewBox="0 0 500 500" style="enable-background:new 0 0 500 500;" xml:space="preserve">
<style type="text/css">
	.st0{display:none;}
	.st1{display:inline;fill:#070707;}
	.st2{fill:#FFFFFF;}
	.st3{fill:url(#SVGID_1_);}
	.st4{fill:#45CE20;}
	.st5{fill:url(#SVGID_00000000911460833382755030000010804032666719346560_);}
	.st6{fill:url(#SVGID_00000031890439337139010590000011531246845494994104_);}
	.st7{display:inline;fill:#FFFFFF;}
	.st8{font-family:'Montserrat-Bold';}
	.st9{font-size:13.4086px;}
	.st10{letter-spacing:2;}
	.st11{display:inline;fill:#7EDCB9;}
	.st12{font-family:'Montserrat-Medium';}
	.st13{font-size:6.2877px;}
	.st14{letter-spacing:7;}
	.st15{display:inline;fill:#45CE20;}
	.st16{font-family:'PirulenRg-Regular';}
	.st17{font-size:38px;}
	.st18{font-family:'BunkenTechSansSCWideW01-Bd';}
	.st19{font-size:35px;}
</style>
<g id="BACKGROUND" class="st0">
	<rect x="1.96" class="st1" width="500" height="500"/>
</g>
<g id="OBJECTS">
	<g>
		<path class="st2" d="M284.56,278.65h-52.89c-3.77,0-6.83-3.06-6.83-6.83V225.6c0-3.77,3.06-6.83,6.83-6.83h52.89
			c3.77,0,6.83,3.06,6.83,6.83v46.23C291.38,275.6,288.33,278.65,284.56,278.65z"/>
		<g>
			<g>
				<linearGradient id="SVGID_1_" gradientUnits="userSpaceOnUse" x1="233.716" y1="255.008" x2="254.8692" y2="255.008">
					<stop  offset="0.5223" style="stop-color:#45CE20"/>
					<stop  offset="0.7821" style="stop-color:#4CA259"/>
				</linearGradient>
				<path class="st3" d="M248.66,265.73c0.19,0.24,0.46,0.57,0.81,0.93c0.47,0.49,0.62,0.62,0.69,0.55
					c0.36-0.39,1.09-1.16,1.14-1.28l1.53-1.87c2.84-3.46,2.41-2.6,0.68-4.55l-13.4-15.11c-1.73-1.95-4.21-2.14-5.55-0.42
					c-1.34,1.72-1.02,4.69,0.71,6.64l7.93,8.92L248.66,265.73z"/>
				<path class="st4" d="M250.65,230.06c-1.38-1.66-3.63-1.65-5.03,0.03L234.8,243.1c-1.37,1.64-1.46,4.2-0.17,5.88l0.05,0.07
					l0.07,0.09c0.01,0.01,0.01,0.01,0.02,0.02c0.01,0.01,0.01,0.01,0.02,0.02l6.32,7.6c-3.4-4.1,1.21-10.68,1.21-10.68l0,0l8.3-9.98
					C252.02,234.43,252.03,231.72,250.65,230.06z"/>
			</g>
			<g>
				<path class="st4" d="M264.76,229.56c-4.11-3.53-2.82-2.97-5.75,0.49l0,0c-2.95,4.04-3.06,3.29-1.31,4.67l17.88,15.78
					c2.12,1.87,5.09,1.95,6.64,0.17l0,0c1.55-1.78,1.09-4.73-1.03-6.61l-9.72-8.56L264.76,229.56z"/>
				
					<radialGradient id="SVGID_00000035507499475641081360000003246377647984723377_" cx="280.6129" cy="250.0759" r="13" fx="280.8232" fy="242.5381" gradientTransform="matrix(1 0 0 1.3886 0 -97.1897)" gradientUnits="userSpaceOnUse">
					<stop  offset="0.6041" style="stop-color:#45CE20"/>
					<stop  offset="0.8781" style="stop-color:#4CA259"/>
				</radialGradient>
				<path style="fill:url(#SVGID_00000035507499475641081360000003246377647984723377_);" d="M269.04,262.19
					c1.9,1.27,5.08,3.05,5.34,3l8.21-14.97c1.01-1.84,0.56-4.41-1.09-5.9l-0.07-0.06l-0.09-0.08c-0.01-0.01-0.01-0.01-0.02-0.02
					c-0.01-0.01-0.01-0.01-0.02-0.02l-7.9-6.71c4.26,3.62,1.07,10.86,1.07,10.86l0,0l-6.12,11.16
					C267.33,261.32,266.83,260.71,269.04,262.19z"/>
			</g>
			
				<linearGradient id="SVGID_00000103984763437125065440000005275322546926666892_" gradientUnits="userSpaceOnUse" x1="244.9317" y1="249.7221" x2="268.5496" y2="249.7221">
				<stop  offset="0.5223" style="stop-color:#45CE20"/>
				<stop  offset="0.7821" style="stop-color:#4CA259"/>
			</linearGradient>
			<path style="fill:url(#SVGID_00000103984763437125065440000005275322546926666892_);" d="M245.3,234.79
				c-0.85-1.78-0.2-4.18,1.46-5.34l0,0c1.66-1.17,3.69-0.67,4.54,1.12l16.26,34.58c1.53,2.79,1.58,2.08-2.14,3.89l0,0
				c-3.83,2.02-2.92,2.12-3.86,0.34L245.3,234.79z"/>
		</g>
		<g class="st0">
			<text transform="matrix(1 0 0 1 222.854 264.9746)" class="st7 st8 st9 st10">developers</text>
			<text transform="matrix(1 0 0 1 227.0508 274.5791)" class="st11 st12 st13 st14">designs</text>
		</g>
	</g>
	<text transform="matrix(0.8128 0 0 1 139.8906 315.873)" class="st0"><tspan x="0" y="0" class="st15 st16 st17">A</tspan><tspan x="39.14" y="0" class="st15 st18 st19">TMOSTECH</tspan></text>
</g>
</svg>
